<?xml version="1.0" standalone="no"?>
<!DOCTYPE svg PUBLIC "-//W3C//DTD SVG 20010904//EN"
 "http://www.w3.org/TR/2001/REC-SVG-20010904/DTD/svg10.dtd">
<svg version="1.0" xmlns="http://www.w3.org/2000/svg"
 width="500.000000pt" height="500.000000pt" viewBox="0 0 500.000000 500.000000"
 preserveAspectRatio="xMidYMid meet">
<metadata>
Created by potrace 1.14, written by Peter Selinger 2001-2017
</metadata>
<g transform="translate(0.000000,500.000000) scale(0.100000,-0.100000)"
fill="#000000" stroke="none">
<path d="M1108 4045 c-151 -24 -287 -73 -401 -142 -86 -52 -200 -164 -252
-247 -152 -245 -162 -621 -23 -853 75 -126 228 -258 376 -325 93 -42 348 -140
521 -200 344 -117 511 -254 487 -397 -14 -88 -111 -163 -261 -201 -98 -25
-297 -27 -395 -4 -180 42 -376 185 -515 377 l-20 27 -240 -196 c-132 -107
-241 -200 -243 -205 -10 -27 278 -291 426 -390 250 -168 480 -239 772 -239
529 0 916 236 1038 632 52 167 50 378 -4 531 -56 156 -204 328 -383 446 -121
79 -196 115 -476 223 -309 119 -442 185 -511 252 -50 49 -54 55 -54 100 0 102
80 175 232 211 83 19 268 19 366 -1 132 -26 188 -59 323 -189 67 -64 126 -114
132 -112 16 6 448 305 465 322 12 10 1 27 -61 97 -228 256 -477 407 -777 473
-105 23 -407 29 -522 10z"/>
<path d="M2657 4043 c-4 -3 -7 -674 -7 -1490 l0 -1484 738 3 c722 4 738 4 807
25 283 87 513 291 615 547 49 122 63 198 63 341 0 256 -74 443 -246 622 l-69
72 21 30 c39 55 92 181 117 279 56 222 11 473 -120 671 -94 140 -271 278 -434
338 -135 50 -171 52 -848 53 -347 0 -634 -3 -637 -7z m1295 -609 c61 -20 121
-73 149 -132 34 -69 33 -178 -3 -247 -31 -59 -66 -94 -128 -126 -44 -23 -51
-24 -382 -27 l-338 -4 0 276 0 276 328 0 c271 0 336 -3 374 -16z m139 -1152
c72 -29 134 -82 164 -143 20 -39 25 -63 25 -127 0 -71 -4 -87 -36 -150 -37
-74 -87 -126 -159 -165 -39 -21 -52 -22 -437 -25 l-398 -3 0 321 0 322 393 -4
c376 -4 394 -5 448 -26z"/>
</g>
</svg>
