<svg xmlns="http://www.w3.org/2000/svg" xmlns:xlink="http://www.w3.org/1999/xlink" aria-hidden="true" version="1.1" style="position:absolute;width:0;height:0;overflow:hidden"><defs><symbol id="icon-music" viewBox="0 0 24 28"><title>music</title><path d="M24 3.5v17.5c0 2.203-3.297 3-5 3s-5-0.797-5-3 3.297-3 5-3c1.031 0 2.063 0.187 3 0.609v-8.391l-12 3.703v11.078c0 2.203-3.297 3-5 3s-5-0.797-5-3 3.297-3 5-3c1.031 0 2.063 0.187 3 0.609v-15.109c0-0.656 0.438-1.234 1.062-1.437l13-4c0.141-0.047 0.281-0.063 0.438-0.063 0.828 0 1.5 0.672 1.5 1.5z"/></symbol><symbol id="icon-search" viewBox="0 0 26 28"><title>search</title><path d="M18 13c0-3.859-3.141-7-7-7s-7 3.141-7 7 3.141 7 7 7 7-3.141 7-7zM26 26c0 1.094-0.906 2-2 2-0.531 0-1.047-0.219-1.406-0.594l-5.359-5.344c-1.828 1.266-4.016 1.937-6.234 1.937-6.078 0-11-4.922-11-11s4.922-11 11-11 11 4.922 11 11c0 2.219-0.672 4.406-1.937 6.234l5.359 5.359c0.359 0.359 0.578 0.875 0.578 1.406z"/></symbol><symbol id="icon-heart" viewBox="0 0 28 28"><title>heart</title><path d="M14 26c-0.25 0-0.5-0.094-0.688-0.281l-9.75-9.406c-0.125-0.109-3.563-3.25-3.563-7 0-4.578 2.797-7.313 7.469-7.313 2.734 0 5.297 2.156 6.531 3.375 1.234-1.219 3.797-3.375 6.531-3.375 4.672 0 7.469 2.734 7.469 7.313 0 3.75-3.437 6.891-3.578 7.031l-9.734 9.375c-0.187 0.187-0.438 0.281-0.688 0.281z"/></symbol><symbol id="icon-check" viewBox="0 0 28 28"><title>check</title><path d="M26.109 8.844c0 0.391-0.156 0.781-0.438 1.062l-13.438 13.438c-0.281 0.281-0.672 0.438-1.062 0.438s-0.781-0.156-1.062-0.438l-7.781-7.781c-0.281-0.281-0.438-0.672-0.438-1.062s0.156-0.781 0.438-1.062l2.125-2.125c0.281-0.281 0.672-0.438 1.062-0.438s0.781 0.156 1.062 0.438l4.594 4.609 10.25-10.266c0.281-0.281 0.672-0.438 1.062-0.438s0.781 0.156 1.062 0.438l2.125 2.125c0.281 0.281 0.438 0.672 0.438 1.062z"/></symbol><symbol id="icon-close" viewBox="0 0 22 28"><title>close</title><path d="M20.281 20.656c0 0.391-0.156 0.781-0.438 1.062l-2.125 2.125c-0.281 0.281-0.672 0.438-1.062 0.438s-0.781-0.156-1.062-0.438l-4.594-4.594-4.594 4.594c-0.281 0.281-0.672 0.438-1.062 0.438s-0.781-0.156-1.062-0.438l-2.125-2.125c-0.281-0.281-0.438-0.672-0.438-1.062s0.156-0.781 0.438-1.062l4.594-4.594-4.594-4.594c-0.281-0.281-0.438-0.672-0.438-1.062s0.156-0.781 0.438-1.062l2.125-2.125c0.281-0.281 0.672-0.438 1.062-0.438s0.781 0.156 1.062 0.438l4.594 4.594 4.594-4.594c0.281-0.281 0.672-0.438 1.062-0.438s0.781 0.156 1.062 0.438l2.125 2.125c0.281 0.281 0.438 0.672 0.438 1.062s-0.156 0.781-0.438 1.062l-4.594 4.594 4.594 4.594c0.281 0.281 0.438 0.672 0.438 1.062z"/></symbol><symbol id="icon-trash-o" viewBox="0 0 22 28"><title>trash-o</title><path d="M8 11.5v9c0 0.281-0.219 0.5-0.5 0.5h-1c-0.281 0-0.5-0.219-0.5-0.5v-9c0-0.281 0.219-0.5 0.5-0.5h1c0.281 0 0.5 0.219 0.5 0.5zM12 11.5v9c0 0.281-0.219 0.5-0.5 0.5h-1c-0.281 0-0.5-0.219-0.5-0.5v-9c0-0.281 0.219-0.5 0.5-0.5h1c0.281 0 0.5 0.219 0.5 0.5zM16 11.5v9c0 0.281-0.219 0.5-0.5 0.5h-1c-0.281 0-0.5-0.219-0.5-0.5v-9c0-0.281 0.219-0.5 0.5-0.5h1c0.281 0 0.5 0.219 0.5 0.5zM18 22.813v-14.812h-14v14.812c0 0.75 0.422 1.188 0.5 1.188h13c0.078 0 0.5-0.438 0.5-1.188zM7.5 6h7l-0.75-1.828c-0.047-0.063-0.187-0.156-0.266-0.172h-4.953c-0.094 0.016-0.219 0.109-0.266 0.172zM22 6.5v1c0 0.281-0.219 0.5-0.5 0.5h-1.5v14.812c0 1.719-1.125 3.187-2.5 3.187h-13c-1.375 0-2.5-1.406-2.5-3.125v-14.875h-1.5c-0.281 0-0.5-0.219-0.5-0.5v-1c0-0.281 0.219-0.5 0.5-0.5h4.828l1.094-2.609c0.313-0.766 1.25-1.391 2.078-1.391h5c0.828 0 1.766 0.625 2.078 1.391l1.094 2.609h4.828c0.281 0 0.5 0.219 0.5 0.5z"/></symbol><symbol id="icon-home" viewBox="0 0 26 28"><title>home</title><path d="M22 15.5v7.5c0 0.547-0.453 1-1 1h-6v-6h-4v6h-6c-0.547 0-1-0.453-1-1v-7.5c0-0.031 0.016-0.063 0.016-0.094l8.984-7.406 8.984 7.406c0.016 0.031 0.016 0.063 0.016 0.094zM25.484 14.422l-0.969 1.156c-0.078 0.094-0.203 0.156-0.328 0.172h-0.047c-0.125 0-0.234-0.031-0.328-0.109l-10.813-9.016-10.813 9.016c-0.109 0.078-0.234 0.125-0.375 0.109-0.125-0.016-0.25-0.078-0.328-0.172l-0.969-1.156c-0.172-0.203-0.141-0.531 0.063-0.703l11.234-9.359c0.656-0.547 1.719-0.547 2.375 0l3.813 3.187v-3.047c0-0.281 0.219-0.5 0.5-0.5h3c0.281 0 0.5 0.219 0.5 0.5v6.375l3.422 2.844c0.203 0.172 0.234 0.5 0.063 0.703z"/></symbol><symbol id="icon-pencil" viewBox="0 0 24 28"><title>pencil</title><path d="M5.672 24l1.422-1.422-3.672-3.672-1.422 1.422v1.672h2v2h1.672zM13.844 9.5c0-0.203-0.141-0.344-0.344-0.344-0.094 0-0.187 0.031-0.266 0.109l-8.469 8.469c-0.078 0.078-0.109 0.172-0.109 0.266 0 0.203 0.141 0.344 0.344 0.344 0.094 0 0.187-0.031 0.266-0.109l8.469-8.469c0.078-0.078 0.109-0.172 0.109-0.266zM13 6.5l6.5 6.5-13 13h-6.5v-6.5zM23.672 8c0 0.531-0.219 1.047-0.578 1.406l-2.594 2.594-6.5-6.5 2.594-2.578c0.359-0.375 0.875-0.594 1.406-0.594s1.047 0.219 1.422 0.594l3.672 3.656c0.359 0.375 0.578 0.891 0.578 1.422z"/></symbol><symbol id="icon-facebook-square" viewBox="0 0 24 28"><title>facebook-square</title><path d="M19.5 2c2.484 0 4.5 2.016 4.5 4.5v15c0 2.484-2.016 4.5-4.5 4.5h-2.938v-9.297h3.109l0.469-3.625h-3.578v-2.312c0-1.047 0.281-1.75 1.797-1.75l1.906-0.016v-3.234c-0.328-0.047-1.469-0.141-2.781-0.141-2.766 0-4.672 1.687-4.672 4.781v2.672h-3.125v3.625h3.125v9.297h-8.313c-2.484 0-4.5-2.016-4.5-4.5v-15c0-2.484 2.016-4.5 4.5-4.5h15z"/></symbol><symbol id="icon-twitter" viewBox="0 0 26 28"><title>twitter</title><path d="M25.312 6.375c-0.688 1-1.547 1.891-2.531 2.609 0.016 0.219 0.016 0.438 0.016 0.656 0 6.672-5.078 14.359-14.359 14.359-2.859 0-5.516-0.828-7.75-2.266 0.406 0.047 0.797 0.063 1.219 0.063 2.359 0 4.531-0.797 6.266-2.156-2.219-0.047-4.078-1.5-4.719-3.5 0.313 0.047 0.625 0.078 0.953 0.078 0.453 0 0.906-0.063 1.328-0.172-2.312-0.469-4.047-2.5-4.047-4.953v-0.063c0.672 0.375 1.453 0.609 2.281 0.641-1.359-0.906-2.25-2.453-2.25-4.203 0-0.938 0.25-1.797 0.688-2.547 2.484 3.062 6.219 5.063 10.406 5.281-0.078-0.375-0.125-0.766-0.125-1.156 0-2.781 2.25-5.047 5.047-5.047 1.453 0 2.766 0.609 3.687 1.594 1.141-0.219 2.234-0.641 3.203-1.219-0.375 1.172-1.172 2.156-2.219 2.781 1.016-0.109 2-0.391 2.906-0.781z"/></symbol><symbol id="icon-youtube" viewBox="0 0 24 28"><title>youtube</title><path d="M15.172 19.437v3.297c0 0.703-0.203 1.047-0.609 1.047-0.234 0-0.469-0.109-0.703-0.344v-4.703c0.234-0.234 0.469-0.344 0.703-0.344 0.406 0 0.609 0.359 0.609 1.047zM20.453 19.453v0.719h-1.406v-0.719c0-0.703 0.234-1.062 0.703-1.062s0.703 0.359 0.703 1.062zM5.359 16.047h1.672v-1.469h-4.875v1.469h1.641v8.891h1.563v-8.891zM9.859 24.938h1.391v-7.719h-1.391v5.906c-0.313 0.438-0.609 0.656-0.891 0.656-0.187 0-0.297-0.109-0.328-0.328-0.016-0.047-0.016-0.219-0.016-0.547v-5.688h-1.391v6.109c0 0.547 0.047 0.906 0.125 1.141 0.125 0.391 0.453 0.578 0.906 0.578 0.5 0 1.031-0.313 1.594-0.953v0.844zM16.562 22.625v-3.078c0-0.719-0.031-1.234-0.141-1.547-0.172-0.578-0.562-0.875-1.109-0.875-0.516 0-1 0.281-1.453 0.844v-3.391h-1.391v10.359h1.391v-0.75c0.469 0.578 0.953 0.859 1.453 0.859 0.547 0 0.938-0.297 1.109-0.859 0.109-0.328 0.141-0.844 0.141-1.563zM21.844 22.469v-0.203h-1.422c0 0.562-0.016 0.875-0.031 0.953-0.078 0.375-0.281 0.562-0.625 0.562-0.484 0-0.719-0.359-0.719-1.078v-1.359h2.797v-1.609c0-0.828-0.141-1.422-0.422-1.813-0.406-0.531-0.953-0.797-1.656-0.797-0.719 0-1.266 0.266-1.672 0.797-0.297 0.391-0.438 0.984-0.438 1.813v2.703c0 0.828 0.156 1.437 0.453 1.813 0.406 0.531 0.953 0.797 1.687 0.797s1.313-0.281 1.687-0.828c0.172-0.25 0.297-0.531 0.328-0.844 0.031-0.141 0.031-0.453 0.031-0.906zM12.344 8.203v-3.281c0-0.719-0.203-1.078-0.672-1.078-0.453 0-0.672 0.359-0.672 1.078v3.281c0 0.719 0.219 1.094 0.672 1.094 0.469 0 0.672-0.375 0.672-1.094zM23.578 19.938c0 1.797-0.016 3.719-0.406 5.469-0.297 1.234-1.297 2.141-2.5 2.266-2.875 0.328-5.781 0.328-8.672 0.328s-5.797 0-8.672-0.328c-1.203-0.125-2.219-1.031-2.5-2.266-0.406-1.75-0.406-3.672-0.406-5.469v0c0-1.813 0.016-3.719 0.406-5.469 0.297-1.234 1.297-2.141 2.516-2.281 2.859-0.313 5.766-0.313 8.656-0.313s5.797 0 8.672 0.313c1.203 0.141 2.219 1.047 2.5 2.281 0.406 1.75 0.406 3.656 0.406 5.469zM7.984 0h1.594l-1.891 6.234v4.234h-1.563v-4.234c-0.141-0.766-0.453-1.859-0.953-3.313-0.344-0.969-0.688-1.953-1.016-2.922h1.656l1.109 4.109zM13.766 5.203v2.734c0 0.828-0.141 1.453-0.438 1.844-0.391 0.531-0.938 0.797-1.656 0.797-0.703 0-1.25-0.266-1.641-0.797-0.297-0.406-0.438-1.016-0.438-1.844v-2.734c0-0.828 0.141-1.437 0.438-1.828 0.391-0.531 0.938-0.797 1.641-0.797 0.719 0 1.266 0.266 1.656 0.797 0.297 0.391 0.438 1 0.438 1.828zM19 2.672v7.797h-1.422v-0.859c-0.562 0.656-1.094 0.969-1.609 0.969-0.453 0-0.781-0.187-0.922-0.578-0.078-0.234-0.125-0.609-0.125-1.172v-6.156h1.422v5.734c0 0.328 0 0.516 0.016 0.547 0.031 0.219 0.141 0.344 0.328 0.344 0.281 0 0.578-0.219 0.891-0.672v-5.953h1.422z"/></symbol><symbol id="icon-apple" viewBox="0 0 22 28"><title>apple</title><path d="M21.766 18.984c-0.391 1.234-1.016 2.547-1.922 3.906-1.344 2.047-2.688 3.063-4.016 3.063-0.531 0-1.25-0.172-2.188-0.5-0.922-0.344-1.719-0.5-2.359-0.5-0.625 0-1.375 0.172-2.219 0.516-0.859 0.359-1.547 0.531-2.063 0.531-1.609 0-3.156-1.359-4.703-4.047-1.516-2.688-2.297-5.297-2.297-7.859 0-2.391 0.594-4.328 1.766-5.844 1.172-1.5 2.641-2.25 4.438-2.25 0.766 0 1.672 0.156 2.766 0.469 1.078 0.313 1.797 0.469 2.156 0.469 0.453 0 1.203-0.172 2.234-0.531 1.031-0.344 1.937-0.531 2.703-0.531 1.25 0 2.359 0.344 3.328 1.016 0.547 0.375 1.094 0.906 1.625 1.563-0.812 0.688-1.406 1.297-1.781 1.844-0.672 0.969-1.016 2.047-1.016 3.234 0 1.281 0.359 2.453 1.078 3.484s1.547 1.687 2.469 1.969zM15.891 0.656c0 0.641-0.156 1.359-0.453 2.125-0.313 0.781-0.797 1.5-1.453 2.156-0.562 0.562-1.125 0.938-1.687 1.125-0.359 0.109-0.891 0.203-1.625 0.266 0.031-1.547 0.438-2.891 1.219-4.016s2.094-1.891 3.906-2.312c0.031 0.141 0.063 0.25 0.078 0.344 0 0.109 0.016 0.203 0.016 0.313z"/></symbol><symbol id="icon-google" viewBox="0 0 24 28"><title>google</title><path d="M12 12.281h11.328c0.109 0.609 0.187 1.203 0.187 2 0 6.844-4.594 11.719-11.516 11.719-6.641 0-12-5.359-12-12s5.359-12 12-12c3.234 0 5.953 1.188 8.047 3.141l-3.266 3.141c-0.891-0.859-2.453-1.859-4.781-1.859-4.094 0-7.438 3.391-7.438 7.578s3.344 7.578 7.438 7.578c4.75 0 6.531-3.406 6.813-5.172h-6.813v-4.125z"/></symbol><symbol id="icon-spotify" viewBox="0 0 24 28"><title>spotify</title><path d="M17.609 18.906c0-0.438-0.172-0.609-0.469-0.797-2.016-1.203-4.359-1.797-6.984-1.797-1.531 0-3 0.203-4.484 0.531-0.359 0.078-0.656 0.313-0.656 0.812 0 0.391 0.297 0.766 0.766 0.766 0.141 0 0.391-0.078 0.578-0.125 1.219-0.25 2.5-0.422 3.797-0.422 2.297 0 4.469 0.562 6.203 1.609 0.187 0.109 0.313 0.172 0.516 0.172 0.391 0 0.734-0.313 0.734-0.75zM19.109 15.547c0-0.422-0.156-0.719-0.547-0.953-2.391-1.422-5.422-2.203-8.563-2.203-2.016 0-3.391 0.281-4.734 0.656-0.5 0.141-0.75 0.484-0.75 1s0.422 0.938 0.938 0.938c0.219 0 0.344-0.063 0.578-0.125 1.094-0.297 2.406-0.516 3.922-0.516 2.969 0 5.672 0.781 7.625 1.937 0.172 0.094 0.344 0.203 0.594 0.203 0.531 0 0.938-0.422 0.938-0.938zM20.797 11.672c0-0.578-0.25-0.875-0.625-1.094-2.703-1.578-6.406-2.312-9.938-2.312-2.078 0-3.984 0.234-5.688 0.734-0.438 0.125-0.844 0.5-0.844 1.156 0 0.641 0.484 1.141 1.125 1.141 0.234 0 0.453-0.078 0.625-0.125 1.516-0.422 3.156-0.578 4.797-0.578 3.25 0 6.625 0.719 8.797 2.016 0.219 0.125 0.375 0.187 0.625 0.187 0.594 0 1.125-0.469 1.125-1.125zM24 14c0 6.625-5.375 12-12 12s-12-5.375-12-12 5.375-12 12-12 12 5.375 12 12z"/></symbol><symbol id="icon-paypal" viewBox="0 0 24 28"><title>paypal</title><path d="M23.734 10.094v0c0.203 0.938 0.156 2.016-0.063 3.187-1.016 5.156-4.438 6.937-8.828 6.937h-0.688c-0.531 0-0.969 0.391-1.062 0.922l-0.063 0.297-0.859 5.406-0.031 0.234c-0.109 0.531-0.547 0.922-1.078 0.922h-3.922c-0.438 0-0.719-0.359-0.656-0.797 0.281-1.75 0.547-3.5 0.828-5.25s0.562-3.484 0.844-5.234c0.047-0.375 0.297-0.578 0.672-0.578 0.625 0 1.25-0.016 2.047 0 1.125 0.016 2.422-0.047 3.687-0.328 1.687-0.375 3.219-1.062 4.484-2.25 1.141-1.062 1.906-2.375 2.422-3.844 0.234-0.688 0.422-1.375 0.547-2.078 0.031-0.187 0.078-0.156 0.187-0.078 0.859 0.641 1.344 1.5 1.531 2.531zM21.047 5.688c0 1.281-0.297 2.5-0.719 3.687-0.812 2.359-2.344 4.047-4.719 4.922-1.266 0.453-2.594 0.641-3.938 0.656-0.938 0.016-1.875 0-2.812 0-1.016 0-1.656 0.5-1.844 1.5-0.219 1.188-1.078 6.719-1.328 8.281-0.016 0.109-0.063 0.156-0.187 0.156h-4.609c-0.469 0-0.812-0.406-0.75-0.859l3.625-22.984c0.094-0.594 0.625-1.047 1.234-1.047h9.344c0.672 0 2.219 0.297 3.266 0.703 2.219 0.859 3.437 2.609 3.437 4.984z"/></symbol></defs></svg>