<svg xmlns="http://www.w3.org/2000/svg" xmlns:xlink="http://www.w3.org/1999/xlink" width="3000" height="3000" version="1.2" viewBox="0 0 2250 2250"><defs><symbol id="h" overflow="visible"><path style="stroke:none" d="M42.688-56.688v7.516H12.797v15.438H39.89v7.75H12.797V0H4.484v-56.688Zm0 0"/></symbol><symbol id="i" overflow="visible"><path style="stroke:none" d="M39.094-56.688v7.516H12.797v15.438h23.422v7.75H12.797V-7.75h26.297V0H4.484v-56.688Zm0 0"/></symbol><symbol id="j" overflow="visible"><path style="stroke:none" d="M4.719 0v-56.688h8.39V-7.75h26.235V0Zm0 0"/></symbol><symbol id="k" overflow="visible"><path style="stroke:none" d="M15.75-49.172H.406v-7.516H39.5v7.516H24.062V0H15.75Zm0 0"/></symbol><symbol id="l" overflow="visible"><path style="stroke:none" d="M44.61-56.688h8.312V0h-8.313v-25.984H12.875V0h-8.39v-56.688h8.39v22.954h31.734Zm0 0"/></symbol><symbol id="m" overflow="visible"><path style="stroke:none" d="M51.25 0H40.781L22.953-24.469h-9.922V0h-8.39v-56.688h23.015c2.239 0 4.36.43 6.36 1.282 2 .855 3.734 2 5.203 3.437a15.864 15.864 0 0 1 3.468 5.078c.852 1.95 1.282 4.043 1.282 6.282 0 1.867-.293 3.625-.875 5.28a15.825 15.825 0 0 1-2.438 4.47 16.635 16.635 0 0 1-3.718 3.484 15.912 15.912 0 0 1-4.72 2.188ZM27.656-32.297a7.8 7.8 0 0 0 3.203-.672 8.3 8.3 0 0 0 2.594-1.812 8.25 8.25 0 0 0 1.719-2.672c.426-1.04.64-2.149.64-3.328a8.338 8.338 0 0 0-.64-3.266 8.714 8.714 0 0 0-1.719-2.687 7.915 7.915 0 0 0-2.594-1.828 7.69 7.69 0 0 0-3.203-.688H13.031v17.031Zm0 0"/></symbol><symbol id="n" overflow="visible"><path style="stroke:none" d="M20.703-26.547.72-56.687h10l14.14 21.265 14.157-21.266h10.078L29.109-26.547V0h-8.406Zm0 0"/></symbol><symbol id="o" overflow="visible"><path style="stroke:none" d="M52.766-56.688h8.406V0h-8.328v-43.5L36.297-20.703h-6.469L13.188-43.5V0H4.796v-56.688h8.39l19.829 27.266Zm0 0"/></symbol><symbol id="p" overflow="visible"><path style="stroke:none" d="M35.844-26.266c2.008 1.2 3.539 2.735 4.593 4.61 1.063 1.867 1.594 4.023 1.594 6.468a13.16 13.16 0 0 1-1.656 6.454c-1.105 1.992-2.664 3.75-4.672 5.28C33.88-2.065 31.801-1 29.47-.25 27.145.488 24.687.883 22.094.938c-2.594 0-5.07-.36-7.422-1.079-2.344-.718-4.43-1.796-6.25-3.234-2.742-2.07-4.61-4.57-5.61-7.5l10.063-4.672c0 .48.164 1.078.5 1.797.344.719.875 1.418 1.594 2.094.719.668 1.648 1.242 2.797 1.719 1.156.48 2.57.718 4.25.718 1.343 0 2.53-.164 3.562-.5 1.031-.332 1.895-.75 2.594-1.25.695-.508 1.223-1.086 1.578-1.734.363-.645.547-1.305.547-1.985 0-.757-.258-1.472-.766-2.14-.5-.676-1.277-1.207-2.328-1.594a48.133 48.133 0 0 0-6.078-1.687 52.774 52.774 0 0 1-6.234-1.735 24.583 24.583 0 0 1-5.61-2.765c-1.73-1.157-3.094-2.766-4.094-4.828a12.772 12.772 0 0 1-1.375-5.829c0-2.3.536-4.53 1.61-6.687a15.995 15.995 0 0 1 4.437-5.469 19.667 19.667 0 0 1 5.97-3.203c2.206-.75 4.534-1.125 6.983-1.125 2.446 0 4.786.36 7.016 1.078a19.289 19.289 0 0 1 6.016 3.172c1.726 1.293 3.093 2.805 4.093 4.531l-8.203 5.61a11.362 11.362 0 0 0-3.78-3.328c-1.513-.844-3.2-1.266-5.063-1.266-2.594 0-4.602.578-6.016 1.734-1.418 1.149-2.125 2.653-2.125 4.516 0 .867.395 1.637 1.188 2.312.789.668 1.82 1.266 3.093 1.797 1.27.532 2.696 1 4.282 1.407 1.582.406 3.156.812 4.718 1.218 1.563.407 3.035.828 4.422 1.266 1.395.43 2.524.906 3.39 1.437Zm0 0"/></symbol><symbol id="q" overflow="visible"><path style="stroke:none" d="M34.766-51.031 56.063 0H44.266l-4.61-10.938H18L13.453 0H1.578l21.313-51.031Zm.78 30.156L28.86-36.922l-6.687 16.047Zm0 0"/></symbol><symbol id="r" overflow="visible"><path style="stroke:none" d="M34.11-27.484 52.468 0h-13.11L27.484-17.625 15.687 0H2.517l18.422-27.484-15.75-23.547H18.28l9.203 13.75 9.22-13.75h13.171Zm0 0"/></symbol><symbol id="s" overflow="visible"><path style="stroke:none" d="M27.484-51.75c3.457 0 6.723.7 9.797 2.094 3.07 1.386 5.742 3.281 8.016 5.687 2.281 2.399 4.082 5.18 5.406 8.344 1.32 3.168 1.984 6.547 1.984 10.14 0 3.555-.664 6.938-1.984 10.157-1.324 3.219-3.125 6.027-5.406 8.422-2.274 2.398-4.945 4.304-8.016 5.718C34.207.228 30.941.938 27.484.938c-3.449 0-6.71-.71-9.78-2.125-3.075-1.414-5.743-3.32-8-5.718-2.25-2.395-4.04-5.203-5.36-8.422-1.313-3.219-1.969-6.602-1.969-10.156 0-3.594.656-6.973 1.969-10.141 1.32-3.164 3.11-5.945 5.36-8.344 2.257-2.406 4.925-4.3 8-5.687 3.07-1.395 6.331-2.094 9.78-2.094Zm0 41.813c1.97 0 3.817-.407 5.547-1.22a14.336 14.336 0 0 0 4.532-3.343c1.3-1.414 2.32-3.055 3.062-4.922.738-1.875 1.11-3.894 1.11-6.062 0-2.157-.372-4.18-1.11-6.078-.742-1.895-1.762-3.547-3.063-4.954a14.395 14.395 0 0 0-4.53-3.343 12.786 12.786 0 0 0-5.548-1.235c-1.96 0-3.804.414-5.53 1.235a14.503 14.503 0 0 0-4.548 3.343c-1.293 1.407-2.308 3.059-3.047 4.953-.742 1.899-1.109 3.922-1.109 6.079 0 2.168.367 4.187 1.11 6.062.738 1.867 1.753 3.508 3.046 4.922a14.443 14.443 0 0 0 4.547 3.344 12.829 12.829 0 0 0 5.531 1.219Zm0 0"/></symbol><symbol id="t" overflow="visible"><path style="stroke:none" d="M3.453 0h36.063v6.844H3.453Zm0 0"/></symbol><symbol id="u" overflow="visible"><path style="stroke:none" d="M35.344-27.781a15.582 15.582 0 0 1 4.812 5.375c1.196 2.18 1.797 4.586 1.797 7.218 0 2.118-.406 4.094-1.219 5.938a15.476 15.476 0 0 1-3.312 4.828 15.51 15.51 0 0 1-4.86 3.234C30.72-.394 28.739 0 26.625 0H3.453v-51.031h22.453c1.914 0 3.711.375 5.39 1.125a14.732 14.732 0 0 1 4.438 2.984 13.65 13.65 0 0 1 2.985 4.39c.718 1.68 1.078 3.477 1.078 5.391 0 2.063-.399 3.875-1.188 5.438a11.267 11.267 0 0 1-3.265 3.922ZM14.39-31.875h11.515c1.301 0 2.407-.453 3.313-1.36.914-.913 1.375-2.023 1.375-3.328 0-1.289-.461-2.367-1.375-3.234-.907-.863-2.012-1.297-3.313-1.297H14.391ZM26.625-9.859c1.438 0 2.66-.61 3.672-1.829 1.008-1.226 1.515-2.66 1.515-4.296 0-1.676-.507-3.086-1.515-4.235-1.012-1.156-2.235-1.734-3.672-1.734H14.391V-9.86Zm0 0"/></symbol><symbol id="v" overflow="visible"><path style="stroke:none" d="M40.094-35.844c0 1.637-.23 3.188-.688 4.657a15.712 15.712 0 0 1-1.922 4.03 14.5 14.5 0 0 1-2.953 3.235 16.032 16.032 0 0 1-3.734 2.266L47.719 0H34.984L19.22-20.578h-4.89V0H3.374v-51.031h22.031c2.008 0 3.914.398 5.719 1.187 1.8.793 3.36 1.875 4.672 3.25 1.32 1.367 2.367 2.977 3.14 4.828.77 1.844 1.157 3.82 1.157 5.922ZM24.03-30.516c1.395 0 2.594-.515 3.594-1.547 1.008-1.03 1.516-2.289 1.516-3.78 0-1.438-.508-2.673-1.516-3.704-1-1.031-2.2-1.547-3.594-1.547h-9.703v10.578Zm0 0"/></symbol><symbol id="w" overflow="visible"><path style="stroke:none" d="M25.625-27.703 50.235 0H36.78L18.72-20.797l-4.39 4.453V0H3.374v-51.031h10.953v20.656l20.5-20.656h13.969Zm0 0"/></symbol><clipPath id="a"><path d="M.5 0h2249v2249H.5Zm0 0"/></clipPath><clipPath id="b"><path d="M721.438 417H1071v891H721.437Zm0 0"/></clipPath><clipPath id="c"><path d="M659 1286h916v462H659Zm0 0"/></clipPath><clipPath id="d"><path d="m1480.66 1021.594 206.988 585.992L839.41 1907.21l-206.988-585.992Zm0 0"/></clipPath><clipPath id="e"><path d="m1480.66 1021.594 206.988 585.992L839.41 1907.21l-206.988-585.992Zm0 0"/></clipPath><clipPath id="f"><path d="m1480.66 1021.594 206.969 585.937-848.238 299.621-206.97-585.933Zm0 0"/></clipPath><clipPath id="g"><path d="M1218.867 417H1568v891h-349.133Zm0 0"/></clipPath></defs><g clip-path="url(#a)"><path style="stroke:none;fill-rule:nonzero;fill:#fff;fill-opacity:1" d="M.5 0h2249v2256.496H.5Zm0 0"/><path style="stroke:none;fill-rule:nonzero;fill:#fff;fill-opacity:1" d="M.5 0h2249v2249H.5Zm0 0"/><path style="stroke:none;fill-rule:nonzero;fill:#56421a;fill-opacity:1" d="M.5 0h2249v2249H.5Zm0 0"/></g><g clip-path="url(#b)"><path style="stroke:none;fill-rule:nonzero;fill:#7e8e65;fill-opacity:1" d="M721.438 1033.656c0-5.031 0-9.648.417-14.683 6.29-94.407 80.891-148.953 146.692-196.785 59.515-43.22 114.836-83.918 111.902-145.598-9.219-177.067-132.02-197.625-133.277-198.047l-5.031-.836-3.77-60.004 6.285-.418c.84 0 25.567-1.68 85.918 19.3 89.274 31.052 136.215 151.892 139.567 224.06 4.191 84.757-39.399 156.925-133.7 220.285-108.968 73.425-106.035 140.558-103.937 185.035 4.61 94.828 139.984 179.164 141.242 180.004l7.125 4.195-62.45 57.484-3.773-2.097c-2.093-1.258-193.21-103.219-193.21-271.895Zm271.585-351.613c0 65.039-56.582 106.578-116.933 150.215-66.637 48.672-135.793 99.02-141.66 187.554-3.352 48.672 9.64 122.938 88.015 200.981 28.078 27.695 59.934 51.61 93.88 71.332l44.007-40.281c-28.918-19.301-136.21-96.086-140.402-185.457-2.098-44.477-5.45-118.324 109.386-195.95 90.532-60.417 132.442-129.23 128.25-208.953-3.351-68.812-47.359-184.199-131.183-213.148-40.653-13.848-64.121-17.625-74.602-18.465l2.516 37.344c24.308 6.293 130.344 42.379 138.726 208.535v6.293Zm0 0"/></g><g clip-path="url(#c)"><g clip-path="url(#d)"><g clip-path="url(#e)"><g clip-path="url(#f)"><path style="stroke:none;fill-rule:nonzero;fill:#f4b4b7;fill-opacity:1" d="M688.664 1469.2c-17.031-49.013-26.656-100.356-28.848-152.34l-.324-4.141 58.684-1.723.398 3.543c.297 2.45 34.149 255.7 169.555 300.906 138.64 46.332 220.906 72.016 295.879 58.582 6.41-1.132 13.07-2.351 19.824-3.316 74.23-12.324 158.328-26.43 206.355-113.738 52.7-95.766 116.528-265.239 117.094-266.856l.801-2.55 45.996-1.5-.594 4.75c-.222 1.777-24.449 171.73-117.308 297.566-95.754 129.695-188.586 166.457-397.117 157.574-105.754-4.621-203.04-47.125-274.305-120.379-43.262-44.566-76.02-97.95-96.09-156.379Zm-20.742-148.68c6.879 120.671 49.066 224.05 122.484 299.375 69.797 71.503 165.215 113.53 268.93 118.023 205.402 8.852 296.473-27.29 390.324-154.324 83.117-112.469 110.598-261.16 115.176-289.157l-30.863.973c-8.246 21.633-67.106 175.453-116.438 265.492-49.914 90.813-139.918 105.868-211.953 117.985-6.66 1.218-13.414 2.183-19.82 3.312-77.172 13.645-160.032-12.113-299.946-58.847-58.214-19.43-106.73-78.875-140.789-172.079-15.394-42.78-26.754-86.988-33.558-131.953Zm0 0"/></g></g></g></g><g clip-path="url(#g)"><path style="stroke:none;fill-rule:nonzero;fill:#7e8e65;fill-opacity:1" d="M1218.867 1033.656c0-5.031 0-9.648.418-14.683 6.285-94.407 80.887-148.953 146.692-196.785 59.511-43.22 114.835-83.918 111.902-145.598-9.223-177.067-132.024-197.625-133.277-198.047l-5.032-.836-3.773-60.004 6.289-.418c.836 0 25.566-1.68 85.918 19.3 89.27 31.052 136.21 151.892 139.566 224.06 4.188 84.757-39.398 156.925-133.699 220.285-108.969 73.425-106.035 140.558-103.941 185.035 4.613 94.828 139.984 179.164 141.242 180.004l7.125 4.195-62.45 57.484-3.769-2.097c-2.098-1.258-193.21-103.219-193.21-271.895Zm271.586-351.613c0 65.039-56.582 106.578-116.933 150.215-66.641 48.672-135.793 99.02-141.66 187.554-3.356 48.672 9.636 122.938 88.011 200.981 28.082 27.695 59.934 51.61 93.883 71.332l44.008-40.281c-28.922-19.301-136.215-96.086-140.403-185.457-2.097-44.477-5.449-118.324 109.387-195.95 90.527-60.417 132.441-129.23 128.25-208.953-3.355-68.812-47.36-184.199-131.184-213.148-40.652-13.848-64.124-17.625-74.601-18.465l2.516 37.344c24.308 6.293 130.343 42.379 138.726 208.535v6.293Zm0 0"/></g><use x="643.579" y="248.193" xlink:href="#h" style="fill:#fffede;fill-opacity:1"/><use x="706.74" y="248.193" xlink:href="#i" style="fill:#fffede;fill-opacity:1"/><use x="770.621" y="248.193" xlink:href="#i" style="fill:#fffede;fill-opacity:1"/><use x="834.502" y="248.193" xlink:href="#j" style="fill:#fffede;fill-opacity:1"/><use x="895.505" y="248.193" xlink:href="#k" style="fill:#fffede;fill-opacity:1"/><use x="936.361" y="248.193" xlink:href="#k" style="fill:#fffede;fill-opacity:1"/><use x="998.084" y="248.193" xlink:href="#l" style="fill:#fffede;fill-opacity:1"/><use x="1075.875" y="248.193" xlink:href="#i" style="fill:#fffede;fill-opacity:1"/><use x="1139.756" y="248.193" xlink:href="#k" style="fill:#fffede;fill-opacity:1"/><use x="1180.613" y="248.193" xlink:href="#m" style="fill:#fffede;fill-opacity:1"/><use x="1253.047" y="248.193" xlink:href="#l" style="fill:#fffede;fill-opacity:1"/><use x="1330.839" y="248.193" xlink:href="#n" style="fill:#fffede;fill-opacity:1"/><use x="1400.955" y="248.193" xlink:href="#k" style="fill:#fffede;fill-opacity:1"/><use x="1462.678" y="248.193" xlink:href="#l" style="fill:#fffede;fill-opacity:1"/><use x="1540.469" y="248.193" xlink:href="#o" style="fill:#fffede;fill-opacity:1"/><use x="788.89" y="2087.586" xlink:href="#p" style="fill:#fffede;fill-opacity:1"/><use x="851.211" y="2087.586" xlink:href="#q" style="fill:#fffede;fill-opacity:1"/><use x="926.846" y="2087.586" xlink:href="#r" style="fill:#fffede;fill-opacity:1"/><use x="999.817" y="2087.586" xlink:href="#s" style="fill:#fffede;fill-opacity:1"/><use x="1072.861" y="2087.586" xlink:href="#t" style="fill:#fffede;fill-opacity:1"/><use x="1133.815" y="2087.586" xlink:href="#u" style="fill:#fffede;fill-opacity:1"/><use x="1196.352" y="2087.586" xlink:href="#v" style="fill:#fffede;fill-opacity:1"/><use x="1263.783" y="2087.586" xlink:href="#s" style="fill:#fffede;fill-opacity:1"/><use x="1336.827" y="2087.586" xlink:href="#w" style="fill:#fffede;fill-opacity:1"/><use x="1406.056" y="2087.586" xlink:href="#s" style="fill:#fffede;fill-opacity:1"/></svg>