<svg xmlns="http://www.w3.org/2000/svg" xmlns:xlink="http://www.w3.org/1999/xlink" width="500" height="500" version="1.2" viewBox="0 0 375 375"><defs><symbol id="a" overflow="visible"><path style="stroke:none" d="M17.625-32.516c-1.012.075-1.746.203-2.203.391-.461.188-.766.555-.922 1.094-.156.531-.234 1.398-.234 2.593v23.422c0 1.2.086 2.07.265 2.61.176.531.485.89.922 1.078.438.187 1.16.32 2.172.39V0c-1.824-.094-4.453-.14-7.89-.14-3.813 0-6.618.046-8.407.14v-.938c1-.07 1.727-.203 2.188-.39.457-.188.765-.547.921-1.078.157-.54.235-1.41.235-2.61v-23.422c0-1.195-.09-2.062-.266-2.593-.168-.54-.476-.907-.922-1.094-.437-.188-1.156-.316-2.156-.39v-.938c1.79.094 4.594.14 8.406.14 3.407 0 6.036-.046 7.891-.14Zm0 0"/></symbol><symbol id="b" overflow="visible"><path style="stroke:none" d="M11.906-24.516h4.625v.938h-4.625v19.61c0 .624.11 1.07.328 1.327.22.25.582.375 1.094.375.375 0 .797-.109 1.266-.328.476-.219.906-.566 1.281-1.047l.703.563C15.128-.586 12.895.656 9.875.656c-2.18 0-3.797-.531-4.86-1.594-.667-.664-1.105-1.484-1.312-2.453-.2-.976-.297-2.351-.297-4.125v-16.062H-.188v-.938h3.594v-5.578c1.696 0 3.227-.164 4.594-.5a14.413 14.413 0 0 0 3.906-1.578Zm0 0"/></symbol><symbol id="c" overflow="visible"><path style="stroke:none" d="M5.25-34.5c1.102 0 2.016.352 2.734 1.047.727.7 1.094 1.61 1.094 2.734 0 .7-.121 1.356-.36 1.969-.241.617-.609 1.398-1.109 2.344a30.56 30.56 0 0 0-2.03 4.297h-.673a31.626 31.626 0 0 0-1.922-4.016c-.574-1.04-.98-1.867-1.218-2.484-.23-.614-.344-1.301-.344-2.063 0-1.125.36-2.039 1.078-2.75.727-.719 1.645-1.078 2.75-1.078Zm0 0"/></symbol><symbol id="d" overflow="visible"><path style="stroke:none" d="M10.922-25.188c1.219 0 2.367.137 3.453.407 1.094.273 1.926.562 2.5.875.344.187.625.281.844.281.664 0 1.062-.504 1.187-1.516h.938c-.125 1.637-.188 4.477-.188 8.516h-.937c-.262-2.082-.856-3.836-1.782-5.266-.93-1.437-2.273-2.156-4.03-2.156-.794 0-1.462.242-2 .719-.532.469-.798 1.11-.798 1.922 0 1.043.344 1.965 1.032 2.765.695.805 1.785 1.79 3.265 2.953.063.032.52.399 1.375 1.094 1.758 1.45 3.051 2.73 3.875 3.844.82 1.117 1.235 2.496 1.235 4.14 0 1.387-.43 2.637-1.282 3.75-.855 1.118-2.015 1.981-3.484 2.594-1.46.614-3.055.922-4.781.922-1.992 0-3.617-.39-4.875-1.172a10.477 10.477 0 0 0-1.328-.609 2.85 2.85 0 0 0-1.032-.203c-.593 0-1.039.555-1.328 1.656h-.937c.125-1.789.187-4.941.187-9.453h.953c.282 2.586.97 4.668 2.063 6.25 1.101 1.574 2.492 2.36 4.172 2.36.781 0 1.43-.22 1.953-.657.52-.445.781-1.098.781-1.953 0-.875-.183-1.656-.547-2.344a8.16 8.16 0 0 0-1.312-1.875c-.524-.55-1.367-1.347-2.531-2.39-1.325-1.227-2.336-2.204-3.032-2.922a10.724 10.724 0 0 1-1.765-2.531c-.493-.958-.735-2.02-.735-3.188 0-1.352.406-2.55 1.219-3.594.82-1.039 1.91-1.836 3.266-2.39 1.351-.551 2.82-.828 4.406-.828Zm0 0"/></symbol><symbol id="e" overflow="visible"><path style="stroke:none" d="M31.938-33.453c-.22 3.5-.329 6.621-.329 9.36 0 1.448.047 2.577.141 3.39h-1.078c-1.043-4.125-2.387-7.098-4.031-8.922-1.637-1.82-3.399-2.734-5.282-2.734h-.047v27.015c0 1.324.13 2.29.391 2.89.27.595.758.997 1.469 1.204.707.21 1.832.313 3.375.313V0c-4.438-.094-7.887-.14-10.344-.14-2.23 0-5.476.046-9.734.14v-.938c1.539 0 2.664-.101 3.375-.312.719-.207 1.207-.61 1.469-1.203.269-.602.406-1.567.406-2.89V-32.36h-.047c-1.93 0-3.703.906-5.328 2.718-1.617 1.805-2.946 4.782-3.985 8.938H1.281c.094-.813.14-1.942.14-3.39 0-2.739-.109-5.86-.327-9.36 2.988.094 8.133.14 15.437.14 7.282 0 12.414-.046 15.407-.14Zm0 0"/></symbol><symbol id="f" overflow="visible"><path style="stroke:none" d="M12-21.64c1.414-2.364 3.922-3.547 7.516-3.547 2.52 0 4.3.632 5.343 1.89.47.574.813 1.34 1.032 2.297.218.96.328 2.227.328 3.797v12.812c0 1.293.195 2.184.593 2.672.395.48 1.083.719 2.063.719v1c-3.406-.125-5.617-.188-6.625-.188-1.074 0-3.309.063-6.703.188v-1c.82 0 1.39-.238 1.703-.719.313-.488.469-1.379.469-2.672V-19.75c0-1.008-.184-1.758-.547-2.25-.367-.488-.953-.734-1.766-.734-.918 0-1.715.324-2.39.968-.68.649-1.016 1.461-1.016 2.438v14.937c0 1.293.156 2.184.469 2.672.32.48.89.719 1.703.719v1c-3.149-.125-5.227-.188-6.235-.188C6.864-.188 4.5-.124.845 0v-1c.976 0 1.664-.238 2.062-.719.395-.488.594-1.379.594-2.672v-26.89c0-1.446-.2-2.5-.594-3.157-.398-.664-1.086-1-2.062-1v-1c.976.106 1.957.157 2.937.157 3.27 0 6.008-.223 8.219-.672Zm0 0"/></symbol><symbol id="g" overflow="visible"><path style="stroke:none" d="M15.734-4.484c2.301 0 4.207-1.055 5.72-3.172l.796.281c-.688 2.21-1.86 4.102-3.516 5.672C17.078-.13 14.957.657 12.375.657c-3.305 0-5.95-1.02-7.938-3.063-1.98-2.051-2.968-5.328-2.968-9.828 0-4.32 1.11-7.563 3.328-9.72 2.219-2.155 5.156-3.233 8.812-3.233 5.946 0 8.922 3.53 8.922 10.593H10.344a22.32 22.32 0 0 0-.047 1.688c0 3.031.523 5.195 1.578 6.484 1.063 1.293 2.348 1.938 3.86 1.938Zm-2.453-19.61c-1.773 0-2.812 2.867-3.125 8.594h5.485c.03-2.52-.153-4.582-.547-6.188-.399-1.601-1-2.406-1.813-2.406Zm0 0"/></symbol><symbol id="h" overflow="visible"><path style="stroke:none" d="M44.469-33.313c1.476 0 2.687-.046 3.625-.14v.937c-1.856.918-3.32 3.125-4.39 6.625L35.765 0a41.981 41.981 0 0 0-2.5-.094c-.637 0-1.453.032-2.453.094l-6.141-18.766L18 0a41.981 41.981 0 0 0-2.5-.094c-.637 0-1.453.032-2.453.094L2.078-29.484c-.375-1.008-.82-1.754-1.328-2.235-.5-.488-.984-.754-1.453-.797v-.937c2.258.094 5.047.14 8.36.14 2.863 0 4.956-.046 6.28-.14v.937c-.855.168-1.28.797-1.28 1.891 0 .668.144 1.367.437 2.094l6.844 19.265L24.093-20.5l-3.203-9.781c-.262-.79-.578-1.344-.953-1.657-.375-.312-.868-.503-1.47-.578v-.937c2.114.094 4.845.14 8.188.14 3.27 0 5.707-.046 7.313-.14v.937c-1.137.043-1.953.188-2.453.438-.5.25-.75.703-.75 1.36 0 .605.156 1.335.468 2.187L37.47-9.594l3.64-11.672c.852-2.8 1.282-5.004 1.282-6.609 0-1.57-.36-2.719-1.078-3.438-.711-.726-1.727-1.128-3.047-1.203v-.937c2.363.094 4.43.14 6.203.14Zm0 0"/></symbol><symbol id="i" overflow="visible"><path style="stroke:none" d="M26.984-3.453c.063.125.203.398.422.812.219.407.442.746.672 1.016.238.262.504.469.797.625v1c-2.906-.125-4.813-.188-5.719-.188-1.043 0-3.265.063-6.672.188v-1c.914 0 1.375-.297 1.375-.89a1.58 1.58 0 0 0-.187-.704l-4.156-8.797c-.188-.343-.403-.593-.641-.75a1.9 1.9 0 0 0-.875-.28v8.03c0 1.293.195 2.184.594 2.672.394.48 1.078.719 2.047.719v1c-3.399-.125-5.633-.188-6.704-.188C6.864-.188 4.5-.124.845 0v-1c.976 0 1.664-.238 2.062-.719.395-.488.594-1.379.594-2.672v-26.89c0-1.446-.2-2.5-.594-3.157-.398-.664-1.086-1-2.062-1v-1c.976.106 1.957.157 2.937.157 3.27 0 6.008-.223 8.219-.672v23.625c.883 0 1.563-.235 2.031-.703l3.64-3.406c1.102-1.008 1.657-2.032 1.657-3.063 0-.82-.355-1.516-1.062-2.078-.711-.57-1.618-.906-2.72-1v-.938c1.79.094 3.68.141 5.673.141 3.082 0 5.238-.047 6.468-.14v.937c-2.18.594-4.507 2.137-6.984 4.625L19.47-17.72Zm0 0"/></symbol><symbol id="j" overflow="visible"><path style="stroke:none" d="M19.656-25.188c2.52 0 4.301.633 5.344 1.891.469.574.813 1.34 1.031 2.297.219.96.328 2.227.328 3.797v12.812c0 1.293.196 2.184.594 2.672.395.48 1.082.719 2.063.719v1c-3.407-.125-5.618-.188-6.625-.188-1.063 0-3.297.063-6.703.188v-1c.82 0 1.39-.238 1.703-.719.312-.488.468-1.379.468-2.672V-19.75c0-1.008-.183-1.758-.547-2.25-.355-.488-.945-.734-1.765-.734-.918 0-1.715.324-2.39.968-.68.649-1.016 1.461-1.016 2.438v14.937c0 1.293.156 2.184.468 2.672.32.48.891.719 1.704.719v1c-3.149-.125-5.227-.188-6.235-.188C7.004-.188 4.645-.124 1 0v-1c.969 0 1.648-.238 2.047-.719.394-.488.594-1.379.594-2.672v-14.984c0-1.445-.2-2.5-.594-3.156-.399-.664-1.078-1-2.047-1v-.985c1 .094 1.973.141 2.922.141 3.27 0 6.008-.223 8.219-.672v3.406c1.414-2.363 3.921-3.547 7.515-3.547Zm0 0"/></symbol><symbol id="k" overflow="visible"><path style="stroke:none" d="M25.375-5.203c0 1.45.191 2.508.578 3.172.395.656 1.082.984 2.063.984v1a30.57 30.57 0 0 0-2.922-.14c-3.282 0-6.024.218-8.219.656v-3.344c-.668 1.219-1.45 2.117-2.344 2.688-.898.562-2.039.843-3.422.843-2.906 0-5.242-1.078-7-3.234-1.761-2.156-2.64-5.438-2.64-9.844 0-4.195.937-7.375 2.812-9.531 1.875-2.156 4.43-3.235 7.672-3.235 2.02 0 3.66.399 4.922 1.188v-7.281c0-1.446-.2-2.5-.594-3.157-.398-.664-1.086-1-2.062-1v-1c.976.106 1.957.157 2.937.157 3.27 0 6.008-.223 8.219-.672ZM13.469-1.797c.914 0 1.71-.32 2.39-.969.676-.644 1.016-1.457 1.016-2.437v-17.813a4.38 4.38 0 0 0-2.234-.609c-1.48 0-2.575.938-3.282 2.813-.71 1.875-1.062 4.718-1.062 8.53 0 3.876.281 6.595.844 8.157.57 1.555 1.347 2.328 2.328 2.328Zm0 0"/></symbol><symbol id="l" overflow="visible"><path style="stroke:none" d="M44.266-32.516c-1 .075-1.73.203-2.188.391-.46.188-.766.555-.922 1.094-.156.531-.234 1.398-.234 2.593v23.422c0 1.2.082 2.07.25 2.61.176.531.484.89.922 1.078.445.187 1.172.32 2.172.39V0c-1.918-.094-4.703-.14-8.36-.14-3.812 0-6.617.046-8.406.14v-.938c1.133-.07 1.96-.203 2.484-.39a1.69 1.69 0 0 0 1.063-1.078c.187-.54.281-1.41.281-2.61v-24.14L19.938-.046h-.75l-13.33-30.33v21.11c0 2.335.094 4.015.282 5.046.187 1.024.601 1.766 1.25 2.235.644.468 1.722.82 3.234 1.046V0C9.332-.094 7.57-.14 5.344-.14c-1.68 0-2.985.046-3.922.14v-.938c.969-.226 1.687-.566 2.156-1.015.477-.457.797-1.16.953-2.11.157-.945.235-2.363.235-4.25v-20.124c0-1.196-.09-2.063-.266-2.594-.168-.54-.477-.907-.922-1.094-.437-.188-1.156-.316-2.156-.39v-.938c.937.094 2.242.14 3.922.14 3.781 0 7.039-.046 9.781-.14l8.922 20.078 7.75-19.938h4.11c3.656 0 6.44-.046 8.359-.14Zm0 0"/></symbol><symbol id="m" overflow="visible"><path style="stroke:none" d="M7.14.328c-2.023 0-3.542-.539-4.562-1.625C1.555-2.379 1.047-3.742 1.047-5.39c0-1.414.367-2.586 1.11-3.515a7.76 7.76 0 0 1 2.609-2.14c1.007-.509 2.316-1.032 3.921-1.563 1.708-.57 2.954-1.094 3.735-1.563.789-.476 1.187-1.14 1.187-1.984v-4.203c0-1.008-.257-1.907-.765-2.688-.5-.789-1.367-1.187-2.594-1.187-.98 0-1.86.265-2.64.797 1.07.375 1.863.937 2.374 1.687.52.742.782 1.563.782 2.469 0 1.23-.434 2.215-1.297 2.953-.867.742-1.914 1.11-3.14 1.11-1.231 0-2.2-.384-2.907-1.157-.711-.77-1.063-1.754-1.063-2.953 0-.945.235-1.766.704-2.453.476-.696 1.222-1.328 2.234-1.89 1.758-1.009 4.281-1.517 7.562-1.517 1.727 0 3.223.168 4.485.5 1.258.336 2.328.954 3.203 1.86.633.668 1.05 1.496 1.25 2.484.207.992.312 2.371.312 4.14v12.657c0 .793.051 1.328.157 1.61.113.28.316.421.609.421.219 0 .453-.066.703-.203a4.68 4.68 0 0 0 .703-.5l.485.797C23.41-.254 21.473.328 18.953.328c-1.898 0-3.226-.324-3.984-.969-.75-.644-1.156-1.52-1.219-2.625C12.27-.867 10.066.328 7.14.328Zm4.72-3.781c.663 0 1.25-.266 1.75-.797v-9.969c-.282.469-.805 1.086-1.563 1.844-.856.813-1.5 1.61-1.938 2.39-.437.774-.656 1.82-.656 3.141 0 2.262.8 3.39 2.406 3.39Zm0 0"/></symbol><symbol id="n" overflow="visible"><path style="stroke:none" d="M4.375-1.938c0-.312-.094-.562-.281-.75a2.616 2.616 0 0 0-.672-.515 12 12 0 0 0-.89-.422 5.054 5.054 0 0 1-.891-.469 2.616 2.616 0 0 1-.688-.687c-.18-.282-.265-.63-.265-1.047 0-.602.207-1.078.625-1.422.414-.352 1.003-.531 1.765-.531.445 0 .852.039 1.219.11.363.062.644.148.844.25l-.266.796a3.582 3.582 0 0 0-.75-.234 5.156 5.156 0 0 0-1.094-.11c-.48 0-.84.11-1.078.328-.242.211-.36.461-.36.75 0 .282.087.524.266.72.188.187.414.359.688.515.27.148.566.293.89.437.32.137.618.305.891.5.27.2.492.434.672.703.188.262.281.594.281 1 0 .325-.058.618-.172.875a1.956 1.956 0 0 1-.515.688 2.312 2.312 0 0 1-.813.437 3.93 3.93 0 0 1-1.094.141C2.146.125 1.692.082 1.329 0A4.14 4.14 0 0 1 .5-.266l.313-.828c.164.094.41.188.734.282.332.093.703.14 1.11.14.238 0 .46-.02.671-.062.207-.051.39-.13.547-.235.156-.113.273-.25.36-.406.093-.156.14-.344.14-.563Zm0 0"/></symbol><symbol id="o" overflow="visible"><path style="stroke:none" d="M4.563-2.125H1.75L.984 0h-.89l2.89-7.766h.407L6.297 0h-.938Zm-2.516-.781h2.25l-.86-2.328-.265-1.157h-.016l-.265 1.188Zm0 0"/></symbol><symbol id="p" overflow="visible"><path style="stroke:none" d="M2.828-3.89.5-7.64h1.094L3.14-5.064l.28.625.267-.625L5.312-7.64h1.016L3.922-3.969 6.437 0H5.375L3.641-2.734l-.282-.657-.296.657L1.296 0H.28Zm0 0"/></symbol><symbol id="q" overflow="visible"><path style="stroke:none" d="M.61-3.828c0-1.27.269-2.242.812-2.922.539-.688 1.305-1.031 2.297-1.031.539 0 1.008.101 1.406.297.395.187.719.453.969.796.258.344.453.762.578 1.25.125.481.187 1.016.187 1.61 0 1.281-.273 2.262-.812 2.937C5.504-.21 4.727.125 3.719.125c-.531 0-.992-.094-1.375-.281a2.627 2.627 0 0 1-.969-.797 3.436 3.436 0 0 1-.578-1.235 6.622 6.622 0 0 1-.188-1.64Zm.968 0c0 .43.04.836.125 1.219.082.375.207.71.375 1 .176.28.399.511.672.687.281.168.602.25.969.25.676 0 1.207-.254 1.594-.765.382-.52.578-1.317.578-2.391 0-.406-.043-.8-.125-1.188a3.201 3.201 0 0 0-.391-1 2.085 2.085 0 0 0-.672-.687c-.273-.176-.601-.266-.984-.266-.668 0-1.196.262-1.578.782-.375.511-.563 1.296-.563 2.359Zm0 0"/></symbol><symbol id="r" overflow="visible"><path style="stroke:none" d="M0 1.469h4.453v.765H0Zm0 0"/></symbol><symbol id="s" overflow="visible"><path style="stroke:none" d="M5.531-5.89c0 .18-.031.359-.093.546a1.672 1.672 0 0 1-.703.969c-.18.125-.391.219-.641.281v.047c.218.031.426.094.625.188.207.086.383.203.531.359.156.148.281.328.375.547.094.219.14.48.14.781 0 .399-.085.742-.25 1.031a2.08 2.08 0 0 1-.64.704c-.262.18-.563.312-.906.406a4.513 4.513 0 0 1-1.047.125h-.438c-.168 0-.343-.012-.53-.032a14.11 14.11 0 0 1-.548-.046 3.327 3.327 0 0 1-.484-.063v-7.531a13.713 13.713 0 0 1 2.11-.156c.288 0 .581.027.874.078.29.043.555.133.797.265.238.137.438.325.594.563.156.242.234.555.234.937ZM3-.704c.238 0 .469-.024.688-.078.218-.051.41-.133.578-.25.164-.125.296-.274.39-.453.102-.176.157-.383.157-.625 0-.301-.063-.54-.188-.72a1.199 1.199 0 0 0-.484-.421 1.842 1.842 0 0 0-.641-.203 4.504 4.504 0 0 0-.719-.063h-.953V-.78a.68.68 0 0 0 .219.047c.101 0 .207.007.312.015.102.012.211.016.329.016H3Zm-.594-3.578h.438a2.94 2.94 0 0 0 .437-.047 2.44 2.44 0 0 0 .5-.203c.156-.082.29-.18.406-.297.125-.113.22-.242.282-.39.07-.157.11-.321.11-.5 0-.239-.048-.438-.141-.595a1.077 1.077 0 0 0-.375-.375 1.6 1.6 0 0 0-.516-.203 3.113 3.113 0 0 0-.594-.062c-.242 0-.465.012-.672.031a3.756 3.756 0 0 0-.453.047v2.594Zm0 0"/></symbol><symbol id="t" overflow="visible"><path style="stroke:none" d="M.922-7.563a11.715 11.715 0 0 1 1.953-.172c.332 0 .648.04.953.11.3.074.567.195.797.36.227.167.41.386.547.656.144.273.219.601.219.984 0 .594-.168 1.078-.5 1.453a2.351 2.351 0 0 1-1.25.75l.53.39L6.079 0H5.016l-2.11-3.297-1.078-.172V0H.922Zm1.969.61h-.297c-.094 0-.196.008-.297.016-.094.011-.184.023-.266.03a.568.568 0 0 0-.203.032v2.813h.86c.5 0 .91-.125 1.234-.375.332-.25.5-.633.5-1.157 0-.394-.137-.718-.406-.968-.274-.258-.649-.391-1.125-.391Zm0 0"/></symbol><symbol id="u" overflow="visible"><path style="stroke:none" d="M2.344-3.531h-.516V0H.922v-7.64h.906v3.562l.5-.156 2.563-3.407h1.046L3.392-4.359 2.92-4l.563.438L6.281 0h-1.14Zm0 0"/></symbol></defs><path style="fill:#fff;fill-opacity:1;stroke:none" d="M0 0h375v375H0z"/><path style="fill:#fff;fill-opacity:1;stroke:none" d="M0 0h375v375H0z"/><path style="fill:#f7f4ed;fill-opacity:1;stroke:none" d="M0 0h375v375H0z"/><use x="153.362" y="124.54" xlink:href="#a" style="fill:#4e4d4b;fill-opacity:1"/><use x="172.309" y="124.54" xlink:href="#b" style="fill:#4e4d4b;fill-opacity:1"/><use x="188.847" y="124.54" xlink:href="#c" style="fill:#4e4d4b;fill-opacity:1"/><use x="199.336" y="124.54" xlink:href="#d" style="fill:#4e4d4b;fill-opacity:1"/><use x="144.409" y="168.79" xlink:href="#e" style="fill:#4e4d4b;fill-opacity:1"/><use x="177.437" y="168.79" xlink:href="#f" style="fill:#4e4d4b;fill-opacity:1"/><use x="206.826" y="168.79" xlink:href="#g" style="fill:#4e4d4b;fill-opacity:1"/><use x="84.444" y="213.04" xlink:href="#h" style="fill:#4e4d4b;fill-opacity:1"/><use x="132.167" y="213.04" xlink:href="#g" style="fill:#4e4d4b;fill-opacity:1"/><use x="155.933" y="213.04" xlink:href="#g" style="fill:#4e4d4b;fill-opacity:1"/><use x="179.7" y="213.04" xlink:href="#i" style="fill:#4e4d4b;fill-opacity:1"/><use x="208.475" y="213.04" xlink:href="#g" style="fill:#4e4d4b;fill-opacity:1"/><use x="232.242" y="213.04" xlink:href="#j" style="fill:#4e4d4b;fill-opacity:1"/><use x="261.773" y="213.04" xlink:href="#k" style="fill:#4e4d4b;fill-opacity:1"/><use x="131.999" y="257.29" xlink:href="#l" style="fill:#4e4d4b;fill-opacity:1"/><use x="177.595" y="257.29" xlink:href="#m" style="fill:#4e4d4b;fill-opacity:1"/><use x="202.685" y="257.29" xlink:href="#b" style="fill:#4e4d4b;fill-opacity:1"/><use x="219.222" y="257.29" xlink:href="#g" style="fill:#4e4d4b;fill-opacity:1"/><use x="145.979" y="294.96" xlink:href="#n" style="fill:#4e4d4b;fill-opacity:1"/><use x="153.737" y="294.96" xlink:href="#o" style="fill:#4e4d4b;fill-opacity:1"/><use x="162.094" y="294.96" xlink:href="#p" style="fill:#4e4d4b;fill-opacity:1"/><use x="170.811" y="294.96" xlink:href="#q" style="fill:#4e4d4b;fill-opacity:1"/><use x="180.249" y="294.96" xlink:href="#r" style="fill:#4e4d4b;fill-opacity:1"/><use x="186.673" y="294.96" xlink:href="#s" style="fill:#4e4d4b;fill-opacity:1"/><use x="195.019" y="294.96" xlink:href="#t" style="fill:#4e4d4b;fill-opacity:1"/><use x="203.486" y="294.96" xlink:href="#q" style="fill:#4e4d4b;fill-opacity:1"/><use x="212.924" y="294.96" xlink:href="#u" style="fill:#4e4d4b;fill-opacity:1"/><use x="221.554" y="294.96" xlink:href="#q" style="fill:#4e4d4b;fill-opacity:1"/></svg>